#!OML:ASF F:\VICON\USERDATA\INSTALL\rory3\rory3.ASF
:FULLY-SPECIFIED
:DEGREES
419
root -1.50628 18.0213 13.1286 216.739 -81.7156 -220.485
lowerback 12.1818 1.55827 -4.02327
upperback 0.772341 1.38523 -1.11278
thorax -6.09592 0.746866 0.861199
lowerneck -21.6778 -5.47989 -11.2054
upperneck 28.7722 -7.1527 8.63487
head 14.2306 -3.32217 4.02391
rclavicle 1.17407e-014 4.17448e-015
rhumerus -39.0439 -13.0445 -78.828
rradius 30.9369
rwrist 5.6503
rhand -15.4929 9.66996
rfingers 7.12502
rthumb 10.6894 -20.0381
lclavicle 1.17407e-014 4.17448e-015
lhumerus -32.7924 -0.955129 85.1865
lradius 31.5278
lwrist -4.41662
lhand -20.0147 27.1585
lfingers 7.12502
lthumb 6.32566 57.044
rfemur -9.16527 -4.5429 13.8433
rtibia 65.5675
rfoot 4.30703 -8.07736
rtoes 17.14
lfemur 2.49326 2.5408 -27.9287
ltibia -7.95139e-015
lfoot 3.85923 -6.71672
ltoes -3.26589
420
root -1.61896 18.0197 13.1383 216.848 -81.7514 -220.649
lowerback 12.2182 1.4642 -4.04758
upperback 0.804126 1.26009 -1.04805
thorax -6.07872 0.686437 0.964724
lowerneck -21.7438 -5.47649 -11.2341
upperneck 28.7723 -7.09781 8.55261
head 14.2352 -3.31026 4.00487
rclavicle 4.19933e-015 -1.98785e-015
rhumerus -39.1165 -13.5637 -78.4651
rradius 31.0902
rwrist 5.93404
rhand -15.1472 9.5301
rfingers 7.12502
rthumb 11.0228 -20.1605
lclavicle 4.19933e-015 -1.98785e-015
lhumerus -32.5063 -0.980316 85.1225
lradius 31.8649
lwrist -4.27059
lhand -20.0551 27.1495
lfingers 7.12502
lthumb 6.28658 57.0362
rfemur -10.3 -4.73997 13.8616
rtibia 66.2027
rfoot 3.43278 -7.57998
rtoes 16.3355
lfemur 2.96082 2.66666 -27.9913
ltibia -1.19271e-015
lfoot 3.44171 -6.81072
ltoes -3.07167
421
root -1.73319 18.0161 13.1453 217.634 -81.7489 -221.487
lowerback 12.1861 1.35605 -4.21276
upperback 0.858917 1.09789 -1.01871
thorax -5.99879 0.609318 1.11835
lowerneck -21.9175 -5.49457 -11.3028
upperneck 28.8845 -7.09542 8.57216
head 14.3257 -3.31181 4.02736
rclavicle -2.26366e-014 -6.75868e-015
rhumerus -39.1429 -13.7159 -78.3136
rradius 31.2542
rwrist 5.65101
rhand -14.9272 9.55564
rfingers 7.12502
rthumb 11.2349 -20.1235
lclavicle -2.26366e-014 -6.75868e-015
lhumerus -32.1071 -0.635736 84.8898
lradius 31.9914
lwrist -4.56385
lhand -19.839 26.8966
lfingers 7.12502
lthumb 6.49521 56.777
rfemur -11.3934 -4.86123 13.8196
rtibia 66.6865
rfoot 2.51847 -7.07469
rtoes 15.1616
lfemur 3.44367 2.764 -28.1607
ltibia 5.36719e-015
lfoot 3.01946 -6.96799
ltoes -3.55661
422
root -1.8469 18.0087 13.1519 218.83 -81.758 -222.719
lowerback 12.1673 1.25018 -4.39509
upperback 0.876748 0.932701 -1.02495
thorax -5.96392 0.531847 1.24365
lowerneck -21.9019 -5.47242 -11.3972
upperneck 28.9138 -7.06572 8.66225
head 14.34 -3.29973 4.08814
rclavicle 8.51047e-015 3.97569e-016
rhumerus -39.2487 -13.757 -78.2637
rradius 31.4418
rwrist 5.18946
rhand -15.0882 9.53273
rfingers 7.12502
rthumb 11.0797 -20.1548
lclavicle 8.51047e-015 3.97569e-016
lhumerus -31.7592 -0.297399 84.6122
lradius 32.1318
lwrist -4.95693
lhand -19.4081 26.57
lfingers 7.12502
lthumb 6.9112 56.4372
rfemur -12.4423 -5.03418 13.7159
rtibia 67.0153
rfoot 1.38526 -6.6441
rtoes 15.2834
lfemur 3.88641 2.81358 -28.3677
ltibia 1.41137e-014
lfoot 2.59798 -7.16546
ltoes -4.76513
423
root -1.95853 17.9947 13.1618 219.322 -81.7901 -223.244
lowerback 12.1909 1.13483 -4.43454
upperback 0.87042 0.772336 -1.02894
thorax -5.97544 0.45449 1.28906
lowerneck -21.785 -5.3681 -11.3364
upperneck 28.8287 -6.92107 8.60504
head 14.2523 -3.24041 4.08042
rclavicle -1.82633e-015 -1.98785e-016
rhumerus -39.3859 -14.0186 -78.1609
rradius 31.5591
rwrist 5.11303
rhand -15.3672 9.5253
rfingers 7.12502
rthumb 10.8105 -20.1765
lclavicle -1.82633e-015 -1.98785e-016
lhumerus -31.5319 -0.273363 84.3799
lradius 32.4409
lwrist -4.83994
lhand -19.0792 26.3626
lfingers 7.12502
lthumb 7.22869 56.2191
rfemur -13.4704 -5.16725 13.7104
rtibia 67.1756
rfoot 0.214337 -6.22064
rtoes 15.0078
lfemur 4.3117 2.90825 -28.4624
ltibia -1.49089e-014
lfoot 2.23744 -7.25711
ltoes -4.92759
424
root -2.06974 17.9778 13.1714 219.139 -81.7906 -223.095
lowerback 12.1976 1.01949 -4.46563
upperback 0.89214 0.619634 -0.964977
thorax -5.94863 0.38064 1.40053
lowerneck -21.8424 -5.2966 -11.3619
upperneck 28.82 -6.77492 8.54673
head 14.2399 -3.1861 4.08859
rclavicle -3.40419e-015 -2.00773e-014
rhumerus -39.4249 -14.1014 -78.0037
rradius 31.6127
rwrist 5.13191
rhand -15.2921 9.64438
rfingers 7.12502
rthumb 10.8831 -20.0536
lclavicle -3.40419e-015 -2.00773e-014
lhumerus -31.329 -0.281575 84.2422
lradius 32.8808
lwrist -4.44894
lhand -19.222 26.7121
lfingers 7.12502
lthumb 7.09086 56.5733
rfemur -14.4874 -5.15568 13.8198
rtibia 67.1714
rfoot -0.858111 -5.7508
rtoes 13.36
lfemur 4.11233 3.08146 -28.5028
ltibia 1.27115
lfoot 1.22474 -7.15937
ltoes -4.8974
425
root -2.1807 17.9672 13.1769 219.177 -81.8297 -223.13
lowerback 12.1822 0.927727 -4.49915
upperback 0.905312 0.500087 -0.890029
thorax -5.92 0.323507 1.51922
lowerneck -21.937 -5.28005 -11.4693
upperneck 28.9061 -6.70545 8.54517
head 14.2937 -3.16797 4.12224
rclavicle -8.69683e-017 1.31198e-014
rhumerus -39.5142 -14.0257 -77.8488
rradius 31.8048
rwrist 4.84223
rhand -14.8653 9.71632
rfingers 7.12502
rthumb 11.2947 -19.9596
lclavicle -8.69683e-017 1.31198e-014
lhumerus -31.1007 -0.441206 84.2223
lradius 33.2843
lwrist -3.97369
lhand -19.5785 27.1544
lfingers 7.12502
lthumb 6.74673 57.0269
rfemur -15.5212 -5.13926 13.9392
rtibia 67.0192
rfoot -2.03653 -5.27773
rtoes 13.8213
lfemur 2.69264 3.18843 -28.5444
ltibia 4.87887
lfoot -0.901729 -6.84215
ltoes -4.83338
426
root -2.28702 17.9524 13.1817 219.769 -81.9412 -223.798
lowerback 12.3136 0.859439 -4.4287
upperback 0.933252 0.409767 -0.909676
thorax -5.95764 0.276822 1.47375
lowerneck -21.9992 -5.27917 -11.5041
upperneck 28.9763 -6.721 8.62938
head 14.3453 -3.16776 4.16238
rclavicle -5.19325e-015 -7.7526e-015
rhumerus -39.6623 -14.1052 -77.7993
rradius 32.0282
rwrist 4.43137
rhand -14.5504 9.83946
rfingers 7.12502
rthumb 11.5984 -19.8196
lclavicle -5.19325e-015 -7.7526e-015
lhumerus -30.7203 -0.490731 84.0872
lradius 33.4743
lwrist -3.82205
lhand -19.7833 27.1438
lfingers 7.12502
lthumb 6.54904 57.0225
rfemur -16.4089 -5.18412 14.0255
rtibia 66.7288
rfoot -3.20018 -4.81643
rtoes 14.9728
lfemur 2.13261 3.20453 -28.5812
ltibia 6.88889
lfoot -2.18798 -6.67954
ltoes -4.7938
427
root -2.39423 17.9277 13.1855 220.814 -81.9272 -224.933
lowerback 12.4612 0.807881 -4.57387
upperback 0.948174 0.312495 -0.89597
thorax -6.01967 0.233417 1.58616
lowerneck -22.1166 -5.28886 -11.8271
upperneck 29.1341 -6.72592 8.94686
head 14.47 -3.16574 4.35576
rclavicle -8.17502e-015 -1.39149e-014
rhumerus -39.7551 -13.7948 -77.8713
rradius 32.1937
rwrist 3.99422
rhand -14.7759 9.84031
rfingers 7.12502
rthumb 11.3809 -19.8308
lclavicle -8.17502e-015 -1.39149e-014
lhumerus -30.3781 -0.201924 83.9347
lradius 33.649
lwrist -4.04417
lhand -19.7251 27.0341
lfingers 7.12502
lthumb 6.60519 56.9111
rfemur -17.2142 -5.18708 13.9861
rtibia 66.316
rfoot -4.32918 -4.4092
rtoes 14.4637
lfemur 1.83203 3.27719 -28.7712
ltibia 8.44618
lfoot -3.32318 -6.47143
ltoes -5.36827
428
root -2.50199 17.9029 13.1897 222.175 -81.9533 -226.368
lowerback 12.5686 0.683353 -4.82211
upperback 0.980535 0.112227 -0.802754
thorax -6.03395 0.142434 1.85937
lowerneck -22.1808 -5.25933 -12.1031
upperneck 29.1188 -6.61713 9.10467
head 14.4816 -3.12685 4.4913
rclavicle 5.36719e-015 -1.19271e-014
rhumerus -39.7362 -13.3962 -77.8949
rradius 32.3109
rwrist 3.8369
rhand -15.1056 9.76141
rfingers 7.12502
rthumb 11.0629 -19.927
lclavicle 5.36719e-015 -1.19271e-014
lhumerus -30.0898 -0.025735 83.9007
lradius 33.9484
lwrist -3.87911
lhand -19.8375 27.2375
lfingers 7.12502
lthumb 6.49668 57.1179
rfemur -18.0476 -5.32539 13.9293
rtibia 65.7568
rfoot -5.45377 -4.08642
rtoes 12.9041
lfemur 1.62112 3.28896 -28.9564
ltibia 9.79889
lfoot -4.39362 -6.27244
ltoes -5.30541
429
root -2.60902 17.8804 13.1927 224.04 -82.0244 -228.247
lowerback 12.6148 0.55528 -4.98147
upperback 0.999228 -0.0851703 -0.82516
thorax -6.0265 0.0485493 1.96036
lowerneck -22.0675 -5.22045 -11.9116
upperneck 28.9181 -6.5616 8.92346
head 14.344 -3.10262 4.38566
rclavicle 3.60297e-015 -1.11319e-014
rhumerus -39.8069 -13.7641 -77.7841
rradius 32.4222
rwrist 4.19279
rhand -15.1994 9.77235
rfingers 7.12502
rthumb 10.9724 -19.9209
lclavicle 3.60297e-015 -1.11319e-014
lhumerus -29.803 -0.344836 83.8383
lradius 34.2931
lwrist -3.27297
lhand -20.2438 27.5977
lfingers 7.12502
lthumb 6.10442 57.4897
rfemur -18.9741 -5.6108 13.937
rtibia 65.0568
rfoot -6.63851 -4.12468
rtoes 9.57678
lfemur 1.40271 3.21642 -29.1101
ltibia 10.9797
lfoot -5.21933 -6.08094
ltoes -3.2865
430
root -2.71791 17.8598 13.1899 225.737 -82.0423 -229.878
lowerback 12.5878 0.464862 -5.18233
upperback 0.988112 -0.237005 -0.887604
thorax -6.01237 -0.0219373 2.03421
lowerneck -21.9686 -5.16281 -11.4763
upperneck 28.7351 -6.51163 8.56625
head 14.2009 -3.07725 4.16469
rclavicle 1.27719e-014 7.15625e-015
rhumerus -39.9548 -14.1741 -77.778
rradius 32.6128
rwrist 4.3902
rhand -15.1777 9.73456
rfingers 7.12502
rthumb 10.9933 -19.9576
lclavicle 1.27719e-014 7.15625e-015
lhumerus -29.516 -0.747681 83.6727
lradius 34.6131
lwrist -2.84206
lhand -20.4423 27.5482
lfingers 7.12502
lthumb 5.91277 57.4457
rfemur -19.893 -5.67081 14.0159
rtibia 64.2022
rfoot -7.69892 -4.40764
rtoes 6.99275
lfemur 1.20289 3.52112 -29.2567
ltibia 11.97
lfoot -5.95109 -6.26717
ltoes -1.24905
431
root -2.82885 17.8407 13.1843 226.756 -82.1477 -230.88
lowerback 12.6114 0.347404 -5.39683
upperback 0.980579 -0.417372 -0.786382
thorax -6.01821 -0.10266 2.29364
lowerneck -22.013 -5.09603 -11.6295
upperneck 28.7669 -6.37669 8.64129
head 14.216 -3.02601 4.24977
rclavicle -1.40143e-014 -1.98785e-015
rhumerus -40.0598 -13.8078 -77.8778
rradius 32.8344
rwrist 4.10557
rhand -15.1515 9.6771
rfingers 7.12502
rthumb 11.0186 -20.0137
lclavicle -1.40143e-014 -1.98785e-015
lhumerus -29.2394 -0.659299 83.5574
lradius 34.8267
lwrist -2.97532
lhand -20.682 27.4414
lfingers 7.12502
lthumb 5.68142 57.3452
rfemur -20.6169 -5.43396 14.1508
rtibia 63.1797
rfoot -8.38892 -4.41382
rtoes 7.99921
lfemur 1.16458 3.40791 -29.3193
ltibia 12.7877
lfoot -6.67374 -6.02763
ltoes -1.6161
432
root -2.93891 17.8197 13.1787 227.229 -82.2754 -231.43
lowerback 12.7158 0.270234 -5.51244
upperback 1.0417 -0.533966 -0.665076
thorax -6.00017 -0.15718 2.50814
lowerneck -22.3012 -5.11915 -12.2106
upperneck 29.0072 -6.33213 9.10582
head 14.4223 -3.00902 4.56254
rclavicle -4.09993e-015 4.77083e-015
rhumerus -40.058 -13.5776 -77.8574
rradius 32.9701
rwrist 4.00185
rhand -15.1264 9.71603
rfingers 7.12502
rthumb 11.0428 -19.9735
lclavicle -4.09993e-015 4.77083e-015
lhumerus -28.8683 -0.398961 83.4506
lradius 34.9929
lwrist -3.30398
lhand -20.5229 27.3274
lfingers 7.12502
lthumb 5.83502 57.227
rfemur -21.2197 -5.19022 14.2915
rtibia 62.0266
rfoot -9.08267 -4.46418
rtoes 10.2568
lfemur 1.32464 3.29446 -29.3148
ltibia 13.4205
lfoot -7.48289 -5.69613
ltoes -2.24978
433
root -3.04727 17.8036 13.1747 228.287 -82.3218 -232.501
lowerback 12.7717 0.194331 -5.6271
upperback 1.09239 -0.653331 -0.645521
thorax -5.96614 -0.215102 2.6148
lowerneck -22.4941 -5.12336 -12.4475
upperneck 29.1073 -6.30644 9.33235
head 14.5246 -2.99191 4.70879
rclavicle -1.09332e-015 -1.94809e-014
rhumerus -40.0584 -13.7496 -77.7923
rradius 33.0427
rwrist 4.22961
rhand -15.0661 9.90178
rfingers 7.12502
rthumb 11.101 -19.7846
lclavicle -1.09332e-015 -1.94809e-014
lhumerus -28.5179 -0.251789 83.2947
lradius 35.2068
lwrist -3.52212
lhand -20.1362 26.9736
lfingers 7.12502
lthumb 6.2083 56.8626
rfemur -21.8761 -5.14883 14.3374
rtibia 60.7645
rfoot -9.91663 -4.81023
rtoes 10.8049
lfemur 1.59238 3.47134 -29.3784
ltibia 13.6513
lfoot -8.17143 -5.73398
ltoes -3.9382
